<?xml version="1.0" encoding="iso-8859-1"?>
<!-- Generator: Adobe Illustrator 19.0.0, SVG Export Plug-In . SVG Version: 6.00 Build 0)  -->
<svg xmlns="http://www.w3.org/2000/svg" xmlns:xlink="http://www.w3.org/1999/xlink" version="1.1" id="Capa_1" x="0px" y="0px" viewBox="0 0 511.894 511.894" style="enable-background:new 0 0 511.894 511.894;" xml:space="preserve" width="512px" height="512px">
<g>
	<g>
		<path d="M445.306,400.167c-5.819-2.171-13.348-4.428-21.315-6.818c-33.79-10.131-80.062-24.011-80.062-53.419    c0-2.211-1.788-3.999-3.999-3.999c-2.21,0-3.999,1.788-3.999,3.999c0,35.359,49.569,50.225,85.764,61.081    c7.834,2.35,15.24,4.569,20.809,6.655c30.758,11.489,45.396,22.245,45.396,52.238v43.991H23.996v-43.991    c0-29.993,14.637-40.749,45.389-52.238c5.576-2.086,12.977-4.304,20.815-6.655c36.197-10.856,85.764-25.722,85.764-61.081    c0-2.211-1.789-3.999-3.999-3.999c-2.21,0-3.999,1.788-3.999,3.999c0,29.408-46.276,43.288-80.062,53.419    c-7.967,2.389-15.493,4.647-21.32,6.818c-32.806,12.263-50.587,25.417-50.587,59.737v47.99c0,2.211,1.789,4,3.999,4h471.902    c2.21,0,3.999-1.789,3.999-4v-47.99C495.897,425.584,478.119,412.431,445.306,400.167z" fill="#005ba9"/>
	</g>
</g>
<g>
	<g>
		<path d="M350.513,296.892c-1.695-1.421-4.21-1.202-5.64,0.469c-28.065,33.149-62.963,54.567-88.927,54.567    c-23.679,0-55.094-17.919-81.987-46.764c-29.693-31.838-49.06-71.798-53.137-109.626c-0.234-2.191-2.129-3.741-4.405-3.546    c-2.195,0.234-3.784,2.206-3.546,4.405c9.073,84.225,88.295,163.529,143.076,163.529c28.213,0,65.518-22.528,95.035-57.394    C352.411,300.844,352.193,298.322,350.513,296.892z" fill="#005ba9"/>
	</g>
</g>
<g>
	<g>
		<path d="M395.918,175.963c-2.211,0-4,1.789-4,3.999c0,28.217-8.591,57.946-24.861,85.975c-1.11,1.913-0.461,4.359,1.452,5.467    c0.633,0.367,1.32,0.539,2.008,0.539c1.374,0,2.718-0.71,3.46-1.992c16.972-29.248,25.939-60.362,25.939-89.989    C399.916,177.752,398.128,175.963,395.918,175.963z" fill="#005ba9"/>
	</g>
</g>
<g>
	<g>
		<path d="M171.965,304.882c-2.21,0-3.999,1.788-3.999,3.999v34.383c0,2.211,1.789,3.999,3.999,3.999s3.999-1.788,3.999-3.999    v-34.383C175.964,306.67,174.175,304.882,171.965,304.882z" fill="#005ba9"/>
	</g>
</g>
<g>
	<g>
		<path d="M339.929,304.89c-2.21,0-3.999,1.788-3.999,3.999v31.04c0,2.211,1.789,3.999,3.999,3.999c2.211,0,3.999-1.788,3.999-3.999    v-31.04C343.928,306.678,342.14,304.89,339.929,304.89z" fill="#005ba9"/>
	</g>
</g>
<g>
	<g>
		<path d="M272.757,441.774c-5.476-1.241-11.131-1.866-16.81-1.866c-25.51,0-49.181,12.7-63.319,33.962    c-3.523,5.302-6.365,11.012-8.447,16.988c-0.727,2.086,0.374,4.366,2.46,5.093c0.438,0.157,0.879,0.227,1.316,0.227    c1.652,0,3.203-1.031,3.777-2.679c1.863-5.344,4.406-10.459,7.557-15.2c12.65-19.028,33.829-30.393,56.656-30.393    c5.085,0,10.155,0.562,15.06,1.664c2.14,0.507,4.296-0.86,4.78-3.015C276.272,444.399,274.912,442.258,272.757,441.774z" fill="#005ba9"/>
	</g>
</g>
<g>
	<g>
		<path d="M327.713,490.859c-2.094-5.975-4.936-11.693-8.451-16.988c-3.593-5.382-7.842-10.303-12.654-14.599    c-1.624-1.468-4.163-1.328-5.639,0.305c-1.477,1.647-1.336,4.178,0.312,5.647c4.295,3.858,8.108,8.256,11.31,13.083    c3.156,4.733,5.703,9.84,7.562,15.192c0.578,1.648,2.124,2.679,3.78,2.679c0.437,0,0.882-0.07,1.319-0.226    C327.338,495.225,328.432,492.945,327.713,490.859z" fill="#005ba9"/>
	</g>
</g>
<g>
	<g>
		<path d="M322.761,417.086c-1.562-1.562-4.093-1.562-5.655,0l-71.985,71.984c-1.562,1.562-1.562,4.093,0,5.655    c0.781,0.781,1.805,1.172,2.828,1.172s2.046-0.39,2.827-1.172l71.985-71.985C324.323,421.179,324.323,418.648,322.761,417.086z" fill="#005ba9"/>
	</g>
</g>
<g>
	<g>
		<path d="M255.947,0C167.743,0,95.98,71.762,95.98,159.967c0,2.211,1.789,4,3.999,4c2.211,0,4-1.789,4-4    c0-83.795,68.173-151.969,151.968-151.969s151.969,68.174,151.969,151.968c0,2.211,1.788,4,3.999,4s3.999-1.789,3.999-3.999    C415.914,71.763,344.147,0,255.947,0z" fill="#005ba9"/>
	</g>
</g>
<g>
	<g>
		<path d="M99.979,155.968c-2.21,0-3.999,1.789-3.999,3.999v215.955c0,2.211,1.789,4,3.999,4c2.211,0,4-1.789,4-4V159.967    C103.979,157.757,102.19,155.968,99.979,155.968z" fill="#005ba9"/>
	</g>
</g>
<g>
	<g>
		<path d="M411.915,155.968c-2.211,0-3.999,1.789-3.999,3.999v215.955c0,2.211,1.788,4,3.999,4s3.999-1.789,3.999-4V159.967    C415.914,157.757,414.126,155.968,411.915,155.968z" fill="#005ba9"/>
	</g>
</g>
<g>
	<g>
		<path d="M353.098,37.434c-1.139,1.136-115.057,113.957-253.927,142.611l1.617,7.834c141.26-29.15,256.818-143.642,257.965-144.798    L353.098,37.434z" fill="#005ba9"/>
	</g>
</g>
<g>
	<g>
		<path d="M285.199,96.808l-4.874,6.342c0.539,0.418,55.121,41.996,130.059,69.291l2.734-7.515    C339.399,138.069,285.73,97.218,285.199,96.808z" fill="#005ba9"/>
	</g>
</g>
<g>
	<g>
		<path d="M399.495,218.165c-0.992-1.977-3.389-2.769-5.366-1.789c-1.977,0.988-2.773,3.39-1.789,5.366    c5.953,11.908,6.374,22.343,1.266,31.896c-17.309,32.451-91.427,42.238-92.168,42.332c-2.196,0.281-3.75,2.281-3.469,4.475    c0.258,2.015,1.985,3.492,3.969,3.492c0.163,0,0.327-0.008,0.499-0.032c3.217-0.406,78.967-10.412,98.229-46.494    C406.985,245.569,406.595,232.365,399.495,218.165z" fill="#005ba9"/>
	</g>
</g>
<g>
	<g>
		<path d="M288.94,287.94c-9.529,0-16.996,5.272-16.996,11.997c0,6.726,7.467,11.998,16.996,11.998s16.996-5.272,16.996-11.998    C305.936,293.212,298.469,287.94,288.94,287.94z M288.94,303.937c-5.577,0-8.998-2.586-8.998-4c0-1.413,3.421-3.998,8.998-3.998    c5.577,0,8.998,2.585,8.998,3.998C297.938,301.351,294.517,303.937,288.94,303.937z" fill="#005ba9"/>
	</g>
</g>
<g>
	<g>
		<path d="M349.412,360.214c-2.046-0.828-4.382,0.18-5.202,2.226c-0.141,0.375-15.825,37.477-88.263,37.477    c-72.141,0-90.911-37.297-91.11-37.703c-0.941-1.991-3.32-2.851-5.308-1.913c-2.003,0.937-2.863,3.319-1.925,5.318    c0.809,1.727,20.711,42.297,98.343,42.297c77.797,0,94.996-40.774,95.699-42.508C352.459,363.361,351.459,361.034,349.412,360.214    z" fill="#005ba9"/>
	</g>
</g>

</svg>
